<svg width="49" height="49" viewBox="0 0 49 49" fill="none" xmlns="http://www.w3.org/2000/svg">
<path fill-rule="evenodd" clip-rule="evenodd" d="M14.5 4.95605H34.5C40.02 4.95605 44.5 9.43605 44.5 14.9561V34.9561C44.5 40.4761 40.02 44.9561 34.5 44.9561H14.5C8.98 44.9561 4.5 40.4761 4.5 34.9561V14.9561C4.5 9.43605 8.98 4.95605 14.5 4.95605ZM34.0494 14.655C34.3895 14.795 34.6696 15.0751 34.8096 15.4151C34.8796 15.5852 34.9297 15.7752 34.9297 15.9553L34.9297 25.9579C34.9196 26.348 34.7696 26.698 34.5095 26.9581C34.2495 27.2182 33.8994 27.3682 33.5093 27.3582C32.7291 27.3582 32.0989 26.7281 32.0989 25.9479V19.3662L16.5049 34.9602C15.9548 35.5103 15.0545 35.5103 14.5044 34.9602C13.9543 34.41 13.9543 33.5098 14.5044 32.9597L30.0984 17.3656H23.4967C22.7165 17.3656 22.0864 16.7355 22.0864 15.9553C22.0864 15.1751 22.7165 14.5449 23.4967 14.5449H33.4993C33.6993 14.5449 33.8794 14.5849 34.0494 14.655Z" fill="black"/>
</svg>
