<svg width="144" height="101" viewBox="0 0 144 101" fill="none" xmlns="http://www.w3.org/2000/svg">
<rect width="144" height="101" fill="#F5F5F5"/>
<g id="WCI ">
<rect x="-408.5" y="-23.5" width="686.4" height="564" rx="4.5" stroke="#9747FF" stroke-dasharray="10 5"/>
<g id="Property 1=wci white">
<g id="Group">
<path id="Vector" d="M39.6126 98.7436L28.7497 0.426758H0.200195L14.5515 100.151H39.4902H39.7962H62.0728L71.5893 0.426758H49.6187L39.6126 98.7436Z" fill="white"/>
<path id="Vector_2" d="M71.834 0.426758L81.2893 100.151H103.29L93.8352 0.426758H71.834Z" fill="white"/>
<path id="Vector_3" d="M114.858 0.426758L103.811 100.151H128.903L143.254 0.426758H114.858Z" fill="white"/>
</g>
<path id="Vector_4" d="M220.074 0.644821C213.34 -2.34985 205.872 -4 198.006 -4C190.139 -4 182.701 -2.34985 175.937 0.644821C158.062 8.52876 145.206 25.7328 143.584 46.1149C143.462 47.5817 143.4 49.0485 143.4 50.5153C143.4 51.9821 143.462 53.4794 143.584 54.9156C145.206 75.1449 157.909 92.2879 175.631 100.233C182.457 103.319 190.047 105 198.006 105C205.964 105 213.555 103.289 220.38 100.233C221.054 99.9274 221.727 99.6218 222.4 99.2857L220.074 50.5153L222.4 1.71435C221.635 1.34765 220.87 0.980958 220.074 0.644821Z" fill="white"/>
</g>
</g>
</svg>
