<svg width="48" height="49" viewBox="0 0 48 49" fill="none" xmlns="http://www.w3.org/2000/svg">
<path fill-rule="evenodd" clip-rule="evenodd" d="M14 4.95605H34C39.52 4.95605 44 9.43605 44 14.9561V34.9561C44 40.4761 39.52 44.9561 34 44.9561H14C8.48 44.9561 4 40.4761 4 34.9561V14.9561C4 9.43605 8.48 4.95605 14 4.95605ZM11.7911 24.2563C18.7871 21.2083 23.4531 19.1983 25.7891 18.2263C32.4521 15.4543 33.8411 14.9713 34.7411 14.9563C35.0726 14.9501 35.3978 15.0476 35.6711 15.2353C35.8621 15.4023 35.984 15.6344 36.0131 15.8863C36.0616 16.1989 36.0747 16.5159 36.0521 16.8313C35.6921 20.6263 34.1291 29.8333 33.3341 34.0843C32.9981 35.8843 32.3351 36.4843 31.6931 36.5443C30.5921 36.6463 29.6951 36.0103 28.7021 35.3023C28.4421 35.1123 28.1721 34.9253 27.8921 34.7413C26.7881 34.0153 25.9361 33.4363 25.0841 32.8543C24.3011 32.3203 23.5151 31.7893 22.5341 31.1413C20.4971 29.7973 21.3491 28.9753 22.4891 27.8773C22.6802 27.6945 22.8682 27.5084 23.0531 27.3193C23.1215 27.2485 23.4066 26.9828 23.8226 26.5952C23.9176 26.5066 24.0195 26.4117 24.1271 26.3113L24.2255 26.2198C26.1078 24.4683 29.5767 21.2406 29.6651 20.8603C29.6801 20.7973 29.6921 20.5633 29.5541 20.4373C29.4161 20.3113 29.2061 20.3533 29.0561 20.3893C28.8461 20.4373 25.4721 22.6673 18.9341 27.0793C17.9781 27.7393 17.1101 28.0593 16.3301 28.0393C15.4751 28.0213 13.8251 27.5563 12.6011 27.1573L12.0761 26.9923L12.072 26.9911C10.8291 26.5987 9.9162 26.3105 10.0061 25.5823C10.0621 25.1483 10.6571 24.7063 11.7911 24.2563Z" fill="black"/>
</svg>
