<svg xmlns="http://www.w3.org/2000/svg" width="119" height="50" viewBox="0 0 119 50" fill="none">
<path d="M18.0346 47.0137L13.0639 2.02539H0L6.56693 47.6578H28.312L32.6666 2.02539H22.6132L18.0346 47.0137Z" fill="white"/>
<path d="M32.7783 2.02539L37.1049 47.6578H47.1724L42.8457 2.02539H32.7783Z" fill="white"/>
<path d="M52.4659 2.02539L47.4111 47.6578H58.8928L65.4597 2.02539H52.4659Z" fill="white"/>
<path d="M118.149 2H105.794V47.5886H118.149" fill="white"/>
<path d="M100.611 2.1254C97.5299 0.755084 94.1124 0 90.5129 0C86.9134 0 83.5099 0.755084 80.4146 2.1254C72.2352 5.73298 66.3527 13.6053 65.6104 22.9319C65.5544 23.603 65.5264 24.2742 65.5264 24.9454C65.5264 25.6166 65.5544 26.3017 65.6104 26.9589C66.3527 36.2156 72.1652 44.06 80.2746 47.6955C83.3979 49.1078 86.8714 49.8768 90.5129 49.8768C94.1544 49.8768 97.6279 49.0938 100.751 47.6955C101.059 47.5557 101.368 47.4158 101.676 47.262L100 24.9454L101.676 2.6148C101.325 2.44701 100.975 2.27921 100.611 2.1254Z" fill="white"/>
</svg>